<svg xmlns="http://www.w3.org/2000/svg" viewBox="0 0 636.15 162.61"><defs><style>.cls-1{fill:#f7922d;}.cls-2{fill:#428ac9;}.cls-3{fill:#fff;}</style></defs><title>Asset 1</title><g id="Layer_2" data-name="Layer 2"><g id="Layer_1-2" data-name="Layer 1"><path class="cls-1" d="M187.67,1.51h35.68v5H193.22v21.2h28v5h-28V61.09h-5.55Z"/><path class="cls-1" d="M231.71,1.51h5.55V61.09h-5.55Z"/><path class="cls-1" d="M244.07,1.51h6l19.18,52.25L288.58,1.51h5.89L271.83,61.09h-5.55Z"/><path class="cls-1" d="M301.27,1.51h36.43v5H306.83v21.2h28.94v5H306.83V56h32.23v5H301.27Z"/><path class="cls-1" d="M404,43.76l8.58-15.48h5.72l-10.77,19,13.55,14.22H413.6l-8.92-9.59a32.58,32.58,0,0,1-8,7.78,18.55,18.55,0,0,1-10.56,2.9,20.51,20.51,0,0,1-7.11-1.22,16.89,16.89,0,0,1-5.76-3.49,16.64,16.64,0,0,1-3.87-5.47A17.31,17.31,0,0,1,368,45.27a14.6,14.6,0,0,1,1.18-6.06,16.89,16.89,0,0,1,3.07-4.63,25.19,25.19,0,0,1,4.33-3.66q2.44-1.64,5-3.24-1.27-1.51-2.57-3.16a26.92,26.92,0,0,1-2.31-3.41,22.75,22.75,0,0,1-1.68-3.66,11.58,11.58,0,0,1-.67-3.91,13,13,0,0,1,1.22-5.72,12.69,12.69,0,0,1,3.28-4.25,14.81,14.81,0,0,1,4.8-2.65A17.62,17.62,0,0,1,389.37,0a14.15,14.15,0,0,1,5,.93,14.36,14.36,0,0,1,4.33,2.57,11.77,11.77,0,0,1,4.08,9.13,12.68,12.68,0,0,1-1.14,5.55,14.91,14.91,0,0,1-3,4.21,23.43,23.43,0,0,1-4.25,3.28q-2.36,1.43-4.88,2.78ZM384.83,31.22q-2,1.18-4,2.52a24.84,24.84,0,0,0-3.62,3,13.82,13.82,0,0,0-2.65,3.7,10.51,10.51,0,0,0-1,4.67,11.86,11.86,0,0,0,3.91,9,12.58,12.58,0,0,0,4.29,2.52,15.6,15.6,0,0,0,5.26.88,12.72,12.72,0,0,0,4.42-.76,16.15,16.15,0,0,0,3.83-2,21.38,21.38,0,0,0,3.28-2.9,30.57,30.57,0,0,0,2.78-3.49ZM388.95,5a9.28,9.28,0,0,0-6.39,2.31,7.76,7.76,0,0,0-2.61,6.1,8.46,8.46,0,0,0,.63,3.11,18.18,18.18,0,0,0,1.6,3.11,26.44,26.44,0,0,0,2.1,2.86L386.34,25q1.76-.93,3.7-2a20.12,20.12,0,0,0,3.53-2.52,13.27,13.27,0,0,0,2.65-3.24A8.13,8.13,0,0,0,397.28,13a7.58,7.58,0,0,0-2.36-5.76A8.35,8.35,0,0,0,388.95,5Z"/><path class="cls-1" d="M463.67,6.56H443.31v-5h46.28v5H469.22V61.09h-5.55Z"/><path class="cls-1" d="M493.28,1.51H499l14.81,52.76H514L529,1.51h7.07l15.06,52.76h.17L566.14,1.51h5.72L554.53,61.09h-6.82l-15.06-53h-.17l-15.06,53h-6.82Z"/><path class="cls-1" d="M574.3,31.3a33.73,33.73,0,0,1,2.27-12.54,29.86,29.86,0,0,1,6.31-9.89,28.63,28.63,0,0,1,9.72-6.52,34.28,34.28,0,0,1,25,0,28.59,28.59,0,0,1,9.72,6.52,29.76,29.76,0,0,1,6.31,9.89A33.67,33.67,0,0,1,635.9,31.3a34,34,0,0,1-2.27,12.58,29.69,29.69,0,0,1-6.31,9.93,28.11,28.11,0,0,1-9.72,6.48,34.88,34.88,0,0,1-25,0,28.15,28.15,0,0,1-9.72-6.48,29.78,29.78,0,0,1-6.31-9.93A34.05,34.05,0,0,1,574.3,31.3Zm5.55,0a29.67,29.67,0,0,0,1.77,10.35,24.55,24.55,0,0,0,5,8.33,23.31,23.31,0,0,0,8,5.55,28.17,28.17,0,0,0,20.95,0,23.31,23.31,0,0,0,8-5.55,24.55,24.55,0,0,0,5-8.33,29.73,29.73,0,0,0,1.77-10.35A29.74,29.74,0,0,0,628.58,21a24.58,24.58,0,0,0-5-8.33,23.31,23.31,0,0,0-8-5.55,28.17,28.17,0,0,0-20.95,0,23.31,23.31,0,0,0-8,5.55,24.58,24.58,0,0,0-5,8.33A29.67,29.67,0,0,0,579.86,31.3Z"/><path class="cls-2" d="M233.27,100a12.58,12.58,0,0,0-5.83-4,20.9,20.9,0,0,0-7-1.3,18.3,18.3,0,0,0-4,.45,15.34,15.34,0,0,0-3.85,1.41,8.42,8.42,0,0,0-2.94,2.55A6.45,6.45,0,0,0,208.6,103a6.38,6.38,0,0,0,2.72,5.55,25.71,25.71,0,0,0,6.85,3.28q4.13,1.36,8.88,2.71a36.69,36.69,0,0,1,8.88,3.85,21,21,0,0,1,6.85,6.67q2.71,4.19,2.72,11.2A25.77,25.77,0,0,1,243,147.9a23.64,23.64,0,0,1-6.73,8.26,28.65,28.65,0,0,1-9.85,4.87,45.17,45.17,0,0,1-26.31-.79,36.26,36.26,0,0,1-12.45-7.69l12.56-13.8a18.32,18.32,0,0,0,6.84,5.6,19.57,19.57,0,0,0,8.55,2,19.27,19.27,0,0,0,4.35-.51,14.15,14.15,0,0,0,4-1.53,8.56,8.56,0,0,0,2.83-2.6,6.49,6.49,0,0,0,1.07-3.74,6.78,6.78,0,0,0-2.77-5.71,25.65,25.65,0,0,0-7-3.56q-4.19-1.47-9.05-2.94a40.51,40.51,0,0,1-9.05-4,21.79,21.79,0,0,1-7-6.56q-2.77-4.07-2.77-10.75a24.09,24.09,0,0,1,2.55-11.32A24.57,24.57,0,0,1,199.61,85a29.57,29.57,0,0,1,9.79-4.92,40.13,40.13,0,0,1,11.43-1.64A45,45,0,0,1,234,80.35a30.33,30.33,0,0,1,11.43,6.45Z"/><path class="cls-2" d="M280.42,96.08H257.56V80.46h63.37V96.08H298.07v64.5H280.42Z"/><path class="cls-2" d="M402.11,129.69A38.68,38.68,0,0,1,400,142.81a28.87,28.87,0,0,1-6.39,10.41,29.3,29.3,0,0,1-10.58,6.9,44.37,44.37,0,0,1-29.31,0,29.28,29.28,0,0,1-10.58-6.9,28.87,28.87,0,0,1-6.39-10.41,38.61,38.61,0,0,1-2.15-13.13V80.46H352.2V129a19.54,19.54,0,0,0,1.19,6.9,16.49,16.49,0,0,0,3.34,5.49,15.14,15.14,0,0,0,5.15,3.62,16.15,16.15,0,0,0,6.51,1.3,15.79,15.79,0,0,0,6.45-1.3,15.36,15.36,0,0,0,5.09-3.62,16.49,16.49,0,0,0,3.34-5.49,19.47,19.47,0,0,0,1.19-6.9V80.46h17.65Z"/><path class="cls-2" d="M423.61,80.46h26.48a75.65,75.65,0,0,1,18.28,2.15,41.84,41.84,0,0,1,15.11,7,34.14,34.14,0,0,1,10.24,12.5q3.79,7.7,3.79,18.67a38.11,38.11,0,0,1-3.68,17.14,36.87,36.87,0,0,1-9.9,12.45A43.76,43.76,0,0,1,469.55,158a55.8,55.8,0,0,1-17.09,2.6H423.61Zm17.65,63.82h9.17A49.27,49.27,0,0,0,461.8,143a24.33,24.33,0,0,0,9.11-4.13,19.82,19.82,0,0,0,6.06-7.58,26.93,26.93,0,0,0,2.21-11.49A22.43,22.43,0,0,0,477,109.6a20.49,20.49,0,0,0-5.94-7.18,26,26,0,0,0-8.77-4.24,39,39,0,0,0-10.58-1.41H441.26Z"/><path class="cls-2" d="M514.63,80.46h17.65v80.12H514.63Z"/><path class="cls-2" d="M549.7,120.52a45.23,45.23,0,0,1,3.23-17.43,38.19,38.19,0,0,1,9-13.29,39.61,39.61,0,0,1,13.69-8.43,52.4,52.4,0,0,1,34.63,0,39.62,39.62,0,0,1,13.69,8.43,38.19,38.19,0,0,1,9,13.29,45.28,45.28,0,0,1,3.22,17.43,45.26,45.26,0,0,1-3.22,17.43,38.2,38.2,0,0,1-9,13.3,39.62,39.62,0,0,1-13.69,8.43,52.45,52.45,0,0,1-34.63,0,39.61,39.61,0,0,1-13.69-8.43,38.2,38.2,0,0,1-9-13.3A45.2,45.2,0,0,1,549.7,120.52Zm18.33,0a29.34,29.34,0,0,0,1.75,10.35,23.7,23.7,0,0,0,5,8.15,22.92,22.92,0,0,0,7.86,5.37,28.2,28.2,0,0,0,20.48,0A23,23,0,0,0,611,139a23.79,23.79,0,0,0,5-8.15,31.25,31.25,0,0,0,0-20.65,23.66,23.66,0,0,0-5-8.21,23.06,23.06,0,0,0-7.86-5.38,28.24,28.24,0,0,0-20.48,0,23,23,0,0,0-7.86,5.38,23.58,23.58,0,0,0-5,8.21A29.47,29.47,0,0,0,568,120.52Z"/><path class="cls-2" d="M132.59,117.27Q119,132.47,98.42,152l57.36-7.38a26.61,26.61,0,0,0,5-1.12V76.65a97.06,97.06,0,0,1-6.9,13A207.71,207.71,0,0,1,132.59,117.27Z"/><path class="cls-2" d="M40.93,144q5.89-9.79,7-18a40.38,40.38,0,0,0-.48-14.77A25.52,25.52,0,0,0,34.35,93.9Q24.11,88.4,5.76,92.82c-1.85.45-3.77,1-5.76,1.61V162.5H25.72A96.55,96.55,0,0,0,40.93,144Z"/><path class="cls-2" d="M51.75,11l1.94,9.37a15.48,15.48,0,0,1-.29,6.85q-.89,3-5.79,4.19L0,42.91V81.23c1.58-.7,3.17-1.37,4.75-2a116.27,116.27,0,0,1,15.06-4.7q22.64-5.46,38.62,1.72t20.16,24.51q5.58,23.12-16,47.85A129.16,129.16,0,0,1,48.3,162.5H75.2Q89.51,146.68,100,133.71A228.41,228.41,0,0,0,120.6,104.5q7.62-13.22,10.5-24.3A55.53,55.53,0,0,0,132.68,59Q131.11,46.73,124,38.5t-21.69-6.35a46.66,46.66,0,0,0-18.48,6.52q-8.64,5.25-18.62,16.2a14.65,14.65,0,0,1-1.67,1.77,4.34,4.34,0,0,1-2.44,1.18q-4.07.52-7.69-3.49a119.92,119.92,0,0,1,25.85-31.1,64.27,64.27,0,0,1,33.8-14.87q23.42-3,36.68,7.53a39.9,39.9,0,0,1,11,13.72V1.71H0V23.5Z"/><path class="cls-3" d="M53.4,27.24a15.48,15.48,0,0,0,.29-6.85L51.75,11,0,23.5V42.91L47.61,31.42Q52.5,30.24,53.4,27.24Z"/><path class="cls-3" d="M62.6,148.63q21.55-24.74,16-47.85Q74.4,83.45,58.42,76.27T19.8,74.55a116.27,116.27,0,0,0-15.06,4.7c-1.58.62-3.16,1.29-4.75,2v13.2c2-.62,3.91-1.17,5.76-1.61Q24.12,88.4,34.35,93.9a25.52,25.52,0,0,1,13.08,17.31A40.38,40.38,0,0,1,47.91,126q-1.1,8.24-7,18A96.55,96.55,0,0,1,25.72,162.5H48.3A129.16,129.16,0,0,0,62.6,148.63Z"/><path class="cls-3" d="M149.74,15.87Q136.48,5.33,113.06,8.34a64.27,64.27,0,0,0-33.8,14.87,119.92,119.92,0,0,0-25.85,31.1q3.63,4,7.69,3.49a4.34,4.34,0,0,0,2.44-1.18,14.65,14.65,0,0,0,1.67-1.77q10-10.94,18.62-16.2a46.66,46.66,0,0,1,18.48-6.52Q116.91,30.27,124,38.5T132.68,59A55.53,55.53,0,0,1,131.1,80.2q-2.89,11.07-10.5,24.3A228.41,228.41,0,0,1,100,133.71q-10.49,13-24.83,28.78h85.59v-19a26.61,26.61,0,0,1-5,1.12L98.42,152q20.59-19.55,34.17-34.76a207.71,207.71,0,0,0,21.29-27.58,97.06,97.06,0,0,0,6.9-13V29.59A39.9,39.9,0,0,0,149.74,15.87Z"/></g></g></svg>